<svg xmlns="http://www.w3.org/2000/svg" width="20.001" height="19" viewBox="0 0 20.001 19"><path d="M-2951.123-1917a.976.976,0,0,1-.481-.144l-5.4-2.825-5.4,2.825a1.024,1.024,0,0,1-.48.144.44.44,0,0,1-.379-.174.705.705,0,0,1-.126-.425,1.9,1.9,0,0,1,.024-.239l1.033-5.986-4.375-4.238a.92.92,0,0,1-.3-.575c0-.294.227-.479.673-.551l6.034-.874,2.7-5.448c.152-.326.35-.491.59-.491s.437.165.589.491l2.7,5.448,6.034.874c.447.072.673.257.673.551a.87.87,0,0,1-.313.575l-4.362,4.238,1.033,5.986a1.782,1.782,0,0,1,.012.239C-2950.63-1917.2-2950.8-1917-2951.123-1917Zm-5.878-4.744h0l4.491,2.358-.857-4.99,3.648-3.521-5.03-.734-2.253-4.529-2.209,4.442v8.131l2.209-1.156Z" transform="translate(2967 1936)" fill="#444"/></svg>