<svg xmlns="http://www.w3.org/2000/svg" width="20" height="19" viewBox="0 0 20 19"><path d="M19.688,7.938l-4.363,4.238,1.034,5.986a1.8,1.8,0,0,1,.012.239.7.7,0,0,1-.126.425.425.425,0,0,1-.367.174.975.975,0,0,1-.481-.144L10,16.031,4.6,18.856A1.024,1.024,0,0,1,4.123,19a.438.438,0,0,1-.379-.174.7.7,0,0,1-.126-.425,1.936,1.936,0,0,1,.024-.239l1.034-5.986L.3,7.938A.911.911,0,0,1,0,7.363q0-.443.673-.551l6.034-.874L9.411.491Q9.639,0,10,0t.589.491l2.7,5.447,6.034.874Q20,6.92,20,7.363A.865.865,0,0,1,19.688,7.938Z" fill="#444"/></svg>