<svg xmlns="http://www.w3.org/2000/svg" width="20" height="19" viewBox="0 0 20 19"><path d="M15.878,19a.988.988,0,0,1-.481-.144L10,16.031,4.6,18.856a1.029,1.029,0,0,1-.48.144.442.442,0,0,1-.379-.173.711.711,0,0,1-.126-.425,1.908,1.908,0,0,1,.024-.24l1.034-5.986L.3,7.938A.915.915,0,0,1,0,7.363c0-.294.227-.479.673-.55l6.034-.875L9.412.491C9.563.165,9.761,0,10,0s.438.165.59.491l2.7,5.447,6.033.875c.447.072.673.257.673.55a.867.867,0,0,1-.312.575l-4.363,4.238,1.033,5.986a1.634,1.634,0,0,1,.013.24C16.37,18.8,16.2,19,15.878,19ZM10,2.766,7.729,7.339l-5.072.742,3.678,3.555-.877,5.04L10,14.295h0l4.531,2.382-.866-5.04,3.678-3.555-5.072-.742Z" fill="#444"/></svg>