<svg xmlns="http://www.w3.org/2000/svg" width="20" height="19" viewBox="0 0 20 19"><path d="M-2951.122-1917a1.091,1.091,0,0,1-.481-.144l-5.4-2.825-5.4,2.825a1.09,1.09,0,0,1-.481.144.444.444,0,0,1-.408-.222.932.932,0,0,1-.072-.617l1.034-5.986-4.375-4.238c-.256-.255-.349-.494-.277-.712s.291-.358.649-.413l6.035-.875,2.7-5.447c.159-.326.357-.491.588-.491s.421.165.589.491l2.7,5.447,6.035.875c.358.055.576.193.649.413s-.026.458-.289.712l-4.364,4.238,1.034,5.986a.929.929,0,0,1-.072.617A.444.444,0,0,1-2951.122-1917Zm-5.878-16.234h0v11.528l.709.371,3.822,2.011-.72-4.25-.145-.79.589-.563,3.089-2.993-4.279-.623-.793-.119-.361-.719Z" transform="translate(2967 1936)" fill="#444"/></svg>